<?xml version="1.0" encoding="UTF-8"?>
<svg width="128px" height="128px" viewBox="0 0 128 128" version="1.1" xmlns="http://www.w3.org/2000/svg" xmlns:xlink="http://www.w3.org/1999/xlink">
    <!-- Generator: Sketch 3.8.1 (29687) - http://www.bohemiancoding.com/sketch -->
    <title>Untitled</title>
    <desc>Created with Sketch.</desc>
    <defs></defs>
    <g id="Page-1" stroke="none" stroke-width="1" fill="none" fill-rule="evenodd">
        <g id="Group-2" transform="translate(1.000000, 1.000000)" stroke-width="2" stroke="#000000">
            <g id="Group">
                <path d="M125.5,63 C125.5,97.518 97.518,125.5 63,125.5 C28.482,125.5 0.5,97.518 0.5,63 C0.5,28.482 28.482,0.5 63,0.5 C97.518,0.5 125.5,28.482 125.5,63 L125.5,63 Z" id="Stroke-11"></path>
                <path d="M63,31.75 C63,19.068 55.442,8.159 44.588,3.261 C24.879,9.328 9.328,24.879 3.261,44.588 C8.159,55.442 19.068,63 31.75,63 C49.009,63 63,49.009 63,31.75 L63,31.75 Z" id="Stroke-13"></path>
                <path d="M122.7394,44.5881 C116.6714,24.8791 101.1214,9.3281 81.4114,3.2601 C70.5584,8.1591 63.0004,19.0681 63.0004,31.7501 C63.0004,49.0091 76.9914,63.0001 94.2504,63.0001 C106.9314,63.0001 117.8404,55.4421 122.7394,44.5881 L122.7394,44.5881 Z" id="Stroke-15"></path>
                <path d="M31.75,63 C19.068,63 8.159,70.558 3.261,81.412 C9.328,101.121 24.879,116.672 44.588,122.739 C55.442,117.841 63,106.932 63,94.25 C63,76.991 49.009,63 31.75,63 L31.75,63 Z" id="Stroke-17"></path>
                <path d="M63,94.25 C63,106.932 70.558,117.841 81.412,122.739 C101.121,116.672 116.672,101.121 122.739,81.412 C117.841,70.558 106.932,63 94.25,63 C76.991,63 63,76.991 63,94.25 L63,94.25 Z" id="Stroke-19"></path>
            </g>
        </g>
    </g>
</svg>