<?xml version="1.0" encoding="UTF-8"?>
<svg width="128px" height="128px" viewBox="0 0 128 128" version="1.1" xmlns="http://www.w3.org/2000/svg" xmlns:xlink="http://www.w3.org/1999/xlink">
    <!-- Generator: Sketch 3.8.1 (29687) - http://www.bohemiancoding.com/sketch -->
    <title>Untitled</title>
    <desc>Created with Sketch.</desc>
    <defs></defs>
    <g id="Page-1" stroke="none" stroke-width="1" fill="none" fill-rule="evenodd">
        <path d="M126.5,64 C126.5,98.518 98.518,126.5 64,126.5 C29.482,126.5 1.5,98.518 1.5,64 C1.5,29.482 29.482,1.5 64,1.5 C98.518,1.5 126.5,29.482 126.5,64 L126.5,64 Z" id="Stroke-21" stroke="#000000" stroke-width="2"></path>
        <path d="M118.6875,64 C118.6875,94.203 94.2035,118.688 63.9995,118.688 C33.7965,118.688 9.3125,94.203 9.3125,64 C9.3125,33.797 33.7965,9.312 63.9995,9.312 C94.2035,9.312 118.6875,33.797 118.6875,64 L118.6875,64 Z" id="Stroke-23" stroke="#000000" stroke-width="2"></path>
        <path d="M64,32.75 C64,20.068 56.442,9.159 45.588,4.261 C25.879,10.328 10.328,25.879 4.26,45.588 C9.159,56.442 20.068,64 32.75,64 C50.009,64 64,50.009 64,32.75 L64,32.75 Z" id="Stroke-25" stroke="#000000" stroke-width="2"></path>
        <path d="M123.7395,45.5881 C117.6715,25.8791 102.1215,10.3281 82.4115,4.2601 C71.5585,9.1591 63.9995,20.0681 63.9995,32.7501 C63.9995,50.0091 77.9915,64.0001 95.2495,64.0001 C107.9315,64.0001 118.8405,56.4421 123.7395,45.5881 L123.7395,45.5881 Z" id="Stroke-27" stroke="#000000" stroke-width="2"></path>
        <path d="M32.75,64 C20.068,64 9.159,71.558 4.26,82.412 C10.328,102.121 25.879,117.672 45.588,123.739 C56.442,118.841 64,107.932 64,95.25 C64,77.991 50.009,64 32.75,64 L32.75,64 Z" id="Stroke-29" stroke="#000000" stroke-width="2"></path>
        <path d="M64,95.25 C64,107.932 71.558,118.841 82.412,123.739 C102.121,117.672 117.672,102.121 123.74,82.412 C118.841,71.558 107.932,64 95.25,64 C77.991,64 64,77.991 64,95.25 L64,95.25 Z" id="Stroke-31" stroke="#000000" stroke-width="2"></path>
        <path d="M118.6414,94.3394 C118.1594,81.8204 107.8864,71.8124 95.2504,71.8124 C82.3054,71.8124 71.8124,82.3054 71.8124,95.2504 C71.8124,107.8864 81.8204,118.1594 94.3394,118.6414 C104.5324,112.9694 112.9694,104.5324 118.6414,94.3394 L118.6414,94.3394 Z" id="Stroke-33" stroke="#000000" stroke-width="2"></path>
        <path d="M95.25,56.1875 C107.887,56.1875 118.159,46.1795 118.641,33.6605 C112.969,23.4675 104.532,15.0305 94.339,9.3585 C81.821,9.8405 71.813,20.1135 71.813,32.7505 C71.813,45.6945 82.306,56.1875 95.25,56.1875 L95.25,56.1875 Z" id="Stroke-35" stroke="#000000" stroke-width="2"></path>
        <path d="M9.3586,33.6606 C9.8406,46.1796 20.1136,56.1876 32.7496,56.1876 C45.6946,56.1876 56.1876,45.6946 56.1876,32.7496 C56.1876,20.1136 46.1796,9.8406 33.6606,9.3586 C23.4676,15.0306 15.0306,23.4676 9.3586,33.6606 L9.3586,33.6606 Z" id="Stroke-37" stroke="#000000" stroke-width="2"></path>
        <path d="M32.75,71.8125 C20.113,71.8125 9.841,81.8205 9.359,94.3395 C15.031,104.5325 23.468,112.9695 33.661,118.6415 C46.179,118.1595 56.187,107.8865 56.187,95.2495 C56.187,82.3055 45.694,71.8125 32.75,71.8125 L32.75,71.8125 Z" id="Stroke-39" stroke="#000000" stroke-width="2"></path>
    </g>
</svg>