<?xml version="1.0" encoding="UTF-8"?>
<svg width="283px" height="282px" viewBox="0 0 283 282" version="1.1" xmlns="http://www.w3.org/2000/svg" xmlns:xlink="http://www.w3.org/1999/xlink">
    <!-- Generator: Sketch 3.8.1 (29687) - http://www.bohemiancoding.com/sketch -->
    <title>Untitled</title>
    <desc>Created with Sketch.</desc>
    <defs></defs>
    <g id="Page-1" stroke="none" stroke-width="1" fill="none" fill-rule="evenodd">
        <path d="M141.066667,2 L141.066667,16.9333333" id="Line" stroke="#FFFFFF" stroke-width="4" stroke-linecap="round" stroke-linejoin="round"></path>
        <path d="M141.066667,264.266667 L141.066667,279.2" id="Line" stroke="#FFFFFF" stroke-width="4" stroke-linecap="round" stroke-linejoin="round"></path>
        <g id="Group-4" opacity="0.3" transform="translate(141.066667, 140.133333) rotate(10.000000) translate(-141.066667, -140.133333) translate(140.133333, 1.533333)" stroke="#FFFFFF" stroke-width="4" stroke-linecap="round" stroke-linejoin="round">
            <path d="M0.933333333,0.466666667 L0.933333333,6.06666667" id="Line"></path>
            <path d="M0.933333333,271.133333 L0.933333333,276.733333" id="Line"></path>
        </g>
        <g id="Group-4" opacity="0.3" transform="translate(141.066667, 140.133333) rotate(20.000000) translate(-141.066667, -140.133333) translate(140.133333, 1.533333)" stroke="#FFFFFF" stroke-width="4" stroke-linecap="round" stroke-linejoin="round">
            <path d="M0.933333333,0.466666667 L0.933333333,6.06666667" id="Line"></path>
            <path d="M0.933333333,271.133333 L0.933333333,276.733333" id="Line"></path>
        </g>
        <g id="Group-4" opacity="0.3" transform="translate(141.066667, 140.133333) rotate(30.000000) translate(-141.066667, -140.133333) translate(140.133333, 1.533333)" stroke="#FFFFFF" stroke-width="4" stroke-linecap="round" stroke-linejoin="round">
            <path d="M0.933333333,0.466666667 L0.933333333,6.06666667" id="Line"></path>
            <path d="M0.933333333,271.133333 L0.933333333,276.733333" id="Line"></path>
        </g>
        <g id="Group-4" opacity="0.3" transform="translate(141.066667, 140.133333) rotate(40.000000) translate(-141.066667, -140.133333) translate(140.133333, 1.533333)" stroke="#FFFFFF" stroke-width="4" stroke-linecap="round" stroke-linejoin="round">
            <path d="M0.933333333,0.466666667 L0.933333333,6.06666667" id="Line"></path>
            <path d="M0.933333333,271.133333 L0.933333333,276.733333" id="Line"></path>
        </g>
        <path d="M262.226976,70.2583763 L262.226976,75.8583763" id="Line" stroke="#FFFFFF" stroke-width="4" stroke-linecap="round" stroke-linejoin="round" opacity="0.3"></path>
        <path d="M26.7560998,205.59171 L26.7560998,211.19171" id="Line" stroke="#FFFFFF" stroke-width="4" stroke-linecap="round" stroke-linejoin="round" opacity="0.3"></path>
        <g id="Group-4" opacity="0.3" transform="translate(141.066667, 140.133333) rotate(70.000000) translate(-141.066667, -140.133333) translate(140.133333, 1.533333)" stroke="#FFFFFF" stroke-width="4" stroke-linecap="round" stroke-linejoin="round">
            <path d="M0.933333333,0.466666667 L0.933333333,6.06666667" id="Line"></path>
            <path d="M0.933333333,271.133333 L0.933333333,276.733333" id="Line"></path>
        </g>
        <g id="Group-4" opacity="0.3" transform="translate(141.066667, 140.133333) rotate(80.000000) translate(-141.066667, -140.133333) translate(140.133333, 1.533333)" stroke="#FFFFFF" stroke-width="4" stroke-linecap="round" stroke-linejoin="round">
            <path d="M0.933333333,0.466666667 L0.933333333,6.06666667" id="Line"></path>
            <path d="M0.933333333,271.133333 L0.933333333,276.733333" id="Line"></path>
        </g>
        <g id="Group-4" opacity="0.3" transform="translate(141.066667, 140.133333) rotate(100.000000) translate(-141.066667, -140.133333) translate(140.133333, 1.533333)" stroke="#FFFFFF" stroke-width="4" stroke-linecap="round" stroke-linejoin="round">
            <path d="M0.933333333,0.466666667 L0.933333333,6.06666667" id="Line"></path>
            <path d="M0.933333333,271.133333 L0.933333333,276.733333" id="Line"></path>
        </g>
        <g id="Group-4" opacity="0.3" transform="translate(141.066667, 140.133333) rotate(110.000000) translate(-141.066667, -140.133333) translate(140.133333, 1.533333)" stroke="#FFFFFF" stroke-width="4" stroke-linecap="round" stroke-linejoin="round">
            <path d="M0.933333333,0.466666667 L0.933333333,6.06666667" id="Line"></path>
            <path d="M0.933333333,271.133333 L0.933333333,276.733333" id="Line"></path>
        </g>
        <g id="Group-4" opacity="0.3" transform="translate(141.119936, 140.241068) rotate(120.000000) translate(-141.119936, -140.241068) translate(140.119936, 1.741068)" stroke="#FFFFFF" stroke-width="4" stroke-linecap="round" stroke-linejoin="round">
            <path d="M0.933333333,0.466666667 L0.933333333,6.06666667" id="Line"></path>
            <path d="M0.933333333,271.133333 L0.933333333,276.733333" id="Line"></path>
        </g>
        <g id="Group-4" opacity="0.3" transform="translate(141.066667, 140.133333) rotate(140.000000) translate(-141.066667, -140.133333) translate(140.133333, 1.533333)" stroke="#FFFFFF" stroke-width="4" stroke-linecap="round" stroke-linejoin="round">
            <path d="M0.933333333,0.466666667 L0.933333333,6.06666667" id="Line"></path>
            <path d="M0.933333333,271.133333 L0.933333333,276.733333" id="Line"></path>
        </g>
        <g id="Group-4" opacity="0.3" transform="translate(141.058932, 140.253269) rotate(150.000000) translate(-141.058932, -140.253269) translate(140.058932, 1.753269)" stroke="#FFFFFF" stroke-width="4" stroke-linecap="round" stroke-linejoin="round">
            <path d="M0.933333333,0.466666667 L0.933333333,6.06666667" id="Line"></path>
            <path d="M0.933333333,271.133333 L0.933333333,276.733333" id="Line"></path>
        </g>
        <g id="Group-4" opacity="0.3" transform="translate(141.066667, 140.133333) rotate(160.000000) translate(-141.066667, -140.133333) translate(140.133333, 1.533333)" stroke="#FFFFFF" stroke-width="4" stroke-linecap="round" stroke-linejoin="round">
            <path d="M0.933333333,0.466666667 L0.933333333,6.06666667" id="Line"></path>
            <path d="M0.933333333,271.133333 L0.933333333,276.733333" id="Line"></path>
        </g>
        <g id="Group-4" opacity="0.3" transform="translate(141.066667, 140.133333) rotate(170.000000) translate(-141.066667, -140.133333) translate(140.133333, 1.533333)" stroke="#FFFFFF" stroke-width="4" stroke-linecap="round" stroke-linejoin="round">
            <path d="M0.933333333,0.466666667 L0.933333333,6.06666667" id="Line"></path>
            <path d="M0.933333333,271.133333 L0.933333333,276.733333" id="Line"></path>
        </g>
        <g id="Group-3" transform="translate(141.066667, 140.133333) rotate(50.000000) translate(-141.066667, -140.133333) translate(140.133333, 1.533333)" stroke="#FFFFFF" stroke-width="4" stroke-linecap="round" stroke-linejoin="round">
            <path d="M0.933333333,0.466666667 L0.933333333,9.8" id="Line"></path>
            <path d="M0.933333333,267.4 L0.933333333,276.733333" id="Line"></path>
        </g>
        <g id="Group-3" transform="translate(141.100419, 140.248682) rotate(130.000000) translate(-141.100419, -140.248682) translate(140.100419, 1.748682)" stroke="#FFFFFF" stroke-width="4" stroke-linecap="round" stroke-linejoin="round">
            <path d="M0.933333333,0.466666667 L0.933333333,9.8" id="Line"></path>
            <path d="M0.933333333,267.4 L0.933333333,276.733333" id="Line"></path>
        </g>
        <g id="Group" transform="translate(141.066667, 140.600000) rotate(90.000000) translate(-141.066667, -140.600000) translate(140.133333, 1.533333)" stroke="#FFFFFF" stroke-width="4" stroke-linecap="round" stroke-linejoin="round">
            <path d="M0.933333333,0.466666667 L0.933333333,15.4" id="Line"></path>
            <path d="M0.933333333,262.733333 L0.933333333,277.666667" id="Line"></path>
        </g>
        <text id="N" font-family=".SFNSText, .SF NS Text" font-size="14" font-weight="normal" letter-spacing="1.39999998" fill="#FFFFFF">
            <tspan x="135.066667" y="34.6355457">N</tspan>
        </text>
        <text id="W" font-family=".SFNSText, .SF NS Text" font-size="14" font-weight="normal" letter-spacing="1.39999998" fill="#FFFFFF">
            <tspan x="25.0666667" y="145.6">W</tspan>
        </text>
        <text id="E" font-family=".SFNSText, .SF NS Text" font-size="14" font-weight="normal" letter-spacing="1.39999998" fill="#FFFFFF">
            <tspan x="249.066667" y="145.6">E</tspan>
        </text>
        <text id="S" font-family=".SFNSText, .SF NS Text" font-size="14" font-weight="normal" letter-spacing="1.39999998" fill="#FFFFFF">
            <tspan x="136.333333" y="256.2">S</tspan>
        </text>
    </g>
</svg>