<?xml version="1.0" encoding="UTF-8"?>
<svg width="71px" height="31px" viewBox="0 0 71 31" version="1.1" xmlns="http://www.w3.org/2000/svg" xmlns:xlink="http://www.w3.org/1999/xlink">
    <!-- Generator: Sketch 3.8.1 (29687) - http://www.bohemiancoding.com/sketch -->
    <title>Untitled</title>
    <desc>Created with Sketch.</desc>
    <defs></defs>
    <g id="Page-1" stroke="none" stroke-width="1" fill="none" fill-rule="evenodd" opacity="0.4">
        <path d="M19.4090909,30.9798316 C22.2608914,30.7377434 24.5,28.3462667 24.5,25.4318182 C24.5,22.3565963 22.0070401,19.8636364 18.9318182,19.8636364 C18.2590588,19.8636364 17.614166,19.9829478 17.0171451,20.2015654 C15.7701601,18.2749374 13.6021506,17 11.1363636,17 C7.7044507,17 4.84937516,19.4697345 4.25149641,22.7288441 C4.21324622,22.7277988 4.17486636,22.7272727 4.13636364,22.7272727 C1.85191308,22.7272727 0,24.5791858 0,26.8636364 C0,29.0410276 1.682403,30.8254727 3.81818182,30.9879442 L3.81818182,31 L19.4090909,31 L19.4090909,30.9798316 Z" id="Oval-76" fill="#C9F5FF"></path>
        <path d="M62.2727273,23.9654255 C67.1615281,23.5504173 71,19.4507429 71,14.4545455 C71,9.18273648 66.7263544,4.90909091 61.4545455,4.90909091 C60.3012436,4.90909091 59.1957131,5.11362475 58.1722487,5.48839786 C56.0345601,2.18560699 52.3179725,0 48.0909091,0 C42.2076298,0 37.3132146,4.23383059 36.2882796,9.82087565 C36.2227078,9.81908365 36.1569138,9.81818182 36.0909091,9.81818182 C32.1747081,9.81818182 29,12.99289 29,16.9090909 C29,20.6417617 31.8841194,23.7008103 35.5454545,23.9793329 L35.5454545,24 L62.2727273,24 L62.2727273,23.9654255 Z" id="Oval-76-Copy-3" fill="#C9F5FF" transform="translate(50.000000, 12.000000) scale(-1, 1) translate(-50.000000, -12.000000) "></path>
    </g>
</svg>