<?xml version="1.0" encoding="UTF-8"?>
<svg width="859px" height="413px" viewBox="0 0 859 413" version="1.1" xmlns="http://www.w3.org/2000/svg" xmlns:xlink="http://www.w3.org/1999/xlink">
    <!-- Generator: Sketch 3.8.1 (29687) - http://www.bohemiancoding.com/sketch -->
    <title>Untitled</title>
    <desc>Created with Sketch.</desc>
    <defs></defs>
    <g id="Page-1" stroke="none" stroke-width="1" fill="none" fill-rule="evenodd">
        <g id="Group">
            <path d="M272.067496,477.021744 C152.799151,477.021744 64.2512517,431.596015 64.2512517,324.985083 C64.2512517,218.370585 135.631319,176.65559 135.631319,142.353147 C135.631319,108.052486 104.910874,46.8672837 128.402665,-6.90358408 C151.896237,-60.6708855 245.865182,-63.4525985 270.259887,-63.4525985 C294.654592,-63.4525985 388.625317,-60.6708855 412.117108,-6.90358408 C435.608899,46.8672837 404.888454,108.052486 404.888454,142.353147 C404.888454,176.65559 476.270303,218.370585 476.270303,324.985083 C476.270303,431.596015 391.337621,477.021744 272.067496,477.021744" id="Fill-49" fill="#FFFFFF" transform="translate(270.260777, 206.784573) rotate(90.000000) translate(-270.260777, -206.784573) "></path>
            <path d="M362.60452,277.878736 C401.714763,277.878736 433.6106,245.942532 433.6106,206.782789 C433.6106,167.626613 401.714763,135.690409 362.60452,135.690409 C323.496057,135.690409 291.600221,167.626613 291.600221,206.782789 C291.600221,245.942532 323.496057,277.878736 362.60452,277.878736" id="Fill-50" fill="#FDE49B" transform="translate(362.605410, 206.784573) rotate(90.000000) translate(-362.605410, -206.784573) "></path>
            <path d="M424.734596,322.695204 C455.33216,322.695204 480.289628,297.707932 480.289628,267.071644 C480.289628,236.435355 455.33216,211.444517 424.734596,211.444517 C394.137033,211.444517 369.181346,236.435355 369.181346,267.071644 C369.181346,297.707932 394.137033,322.695204 424.734596,322.695204 L367.327108,89.0194126" id="Fill-51" fill="#373129" transform="translate(423.808368, 205.857308) rotate(90.000000) translate(-423.808368, -205.857308) "></path>
            <polygon id="Fill-52" fill="#000000" transform="translate(629.845079, 206.785463) rotate(90.000000) translate(-629.845079, -206.785463) " points="659.017926 435.668691 655.055434 -22.0977647 604.632943 -22.0977647 600.672232 435.668691"></polygon>
            <path id="Path-18" stroke="#979797"></path>
        </g>
    </g>
</svg>