<?xml version="1.0" encoding="UTF-8"?>
<svg width="32px" height="180px" viewBox="0 0 32 180" version="1.1" xmlns="http://www.w3.org/2000/svg" xmlns:xlink="http://www.w3.org/1999/xlink">
    <!-- Generator: Sketch 3.8.1 (29687) - http://www.bohemiancoding.com/sketch -->
    <title>Untitled</title>
    <desc>Created with Sketch.</desc>
    <defs></defs>
    <g id="Page-1" stroke="none" stroke-width="1" fill="none" fill-rule="evenodd">
        <g id="Group-2">
            <path d="M-40.945177,74.337151 L72.3553871,74.337151 C104.870975,74.337151 87.7565704,89.0552655 105.513878,91.9653651 L105.513878,99.0516005 C105.513878,102.446717 103.061585,105.230213 100.0679,105.230213 L-68.3709659,105.230213 C-71.3682128,105.230213 -73.8187248,102.446717 -73.8187248,99.0516005 L-73.8187248,91.9653651 C-56.079226,89.0588318 -73.067187,74.337151 -40.945177,74.337151" id="Fill-76" fill="#FDE49B" transform="translate(15.847577, 89.783682) rotate(90.000000) translate(-15.847577, -89.783682) "></path>
            <path d="M16.4127454,71.348219 C18.4714605,71.348219 20.1508448,69.6667092 20.1508448,67.6036055 C20.1508448,65.5405017 18.4714605,63.8589919 16.4127454,63.8589919 C14.3522495,63.8589919 12.6728651,65.5405017 12.6728651,67.6036055 C12.6728651,69.6667092 14.3522495,71.348219 16.4127454,71.348219" id="Fill-77" fill="#6A554B" transform="translate(16.411855, 67.603605) rotate(90.000000) translate(-16.411855, -67.603605) "></path>
            <path d="M16.411855,80.2229214 C18.4723509,80.2229214 20.1517353,78.5414116 20.1517353,76.4783078 C20.1517353,74.4152041 18.4723509,72.7336943 16.411855,72.7336943 C14.351359,72.7336943 12.6719747,74.4152041 12.6719747,76.4783078 C12.6719747,78.5414116 14.351359,80.2229214 16.411855,80.2229214" id="Fill-78" fill="#6A554B" transform="translate(16.411855, 76.478308) rotate(90.000000) translate(-16.411855, -76.478308) "></path>
            <path d="M16.4109645,89.0958426 C18.4714605,89.0958426 20.1526257,87.4143328 20.1526257,85.351229 C20.1526257,83.2881252 18.4714605,81.6066154 16.4109645,81.6066154 C14.3504686,81.6066154 12.6710842,83.2881252 12.6710842,85.351229 C12.6710842,87.4143328 14.3504686,89.0958426 16.4109645,89.0958426" id="Fill-79" fill="#6A554B" transform="translate(16.411855, 85.351229) rotate(90.000000) translate(-16.411855, -85.351229) "></path>
            <path d="M16.411855,97.9687638 C18.4723509,97.9687638 20.1517353,96.287254 20.1517353,94.2241502 C20.1517353,92.1610464 18.4723509,90.4795366 16.411855,90.4795366 C14.3531399,90.4795366 12.6719747,92.1610464 12.6719747,94.2241502 C12.6719747,96.287254 14.3531399,97.9687638 16.411855,97.9687638" id="Fill-80" fill="#6A554B" transform="translate(16.411855, 94.224150) rotate(90.000000) translate(-16.411855, -94.224150) "></path>
            <path d="M16.4127454,106.841685 C18.4714605,106.841685 20.1508448,105.160175 20.1508448,103.097071 C20.1508448,101.033968 18.4714605,99.3524578 16.4127454,99.3524578 C14.3522495,99.3524578 12.6728651,101.033968 12.6728651,103.097071 C12.6728651,105.160175 14.3522495,106.841685 16.4127454,106.841685" id="Fill-81" fill="#6A554B" transform="translate(16.411855, 103.097071) rotate(90.000000) translate(-16.411855, -103.097071) "></path>
            <path d="M16.411855,115.716387 C18.4723509,115.716387 20.1517353,114.034877 20.1517353,111.971774 C20.1517353,109.90867 18.4723509,108.22716 16.411855,108.22716 C14.351359,108.22716 12.6719747,109.90867 12.6719747,111.971774 C12.6719747,114.034877 14.351359,115.716387 16.411855,115.716387" id="Fill-82" fill="#6A554B" transform="translate(16.411855, 111.971774) rotate(90.000000) translate(-16.411855, -111.971774) "></path>
        </g>
    </g>
</svg>